inDegrees=no
nColumns=24
nRows=13
DataType=double
version=3
OpenSimVersion=4.5
endheader
time	pelvis_tilt	pelvis_list	pelvis_rotation	pelvis_tz	pelvis_ty	pelvis_tx	hip_flexion_r	hip_adduction_r	hip_rotation_r	knee_angle_r	ankle_angle_r	subtalar_angle_r	mtp_angle_r	hip_flexion_l	hip_adduction_l	hip_rotation_l	knee_angle_l	ankle_angle_l	subtalar_angle_l	mtp_angle_l	lumbar_extension	lumbar_bending	lumbar_rotation
0	0.0003160652716356741	-0.05915542348676985	-0.03767662165050623	0	0.9845592200000001	-0	-0.2584729743770843	0.09826767936221951	-0.2455819233035693	-0.2073892564335715	0.3250682744572373	0.07850981430443597	0	0.4724413394850379	-0.06182665896344361	-0.343351361255294	-0.1473984326903465	-0.05732341697611561	0.1040716600886545	0	-0.2155342031288764	0.0753029880501907	0.1586574249840582
0.01000000000000001	-0.005238412896211243	-0.05383864856222282	-0.04627749111696192	0.0003655399999999975	0.98337398	0.01352532000000001	-0.2545024578410792	0.08515911296548327	-0.2440780614007859	-0.2318897592966048	0.312666731690239	0.09674504138187613	0	0.4800166091416955	-0.06057436637558176	-0.3417819102282865	-0.1804053648949811	-0.05600280836160634	0.09202981536879232	0	-0.2060195642735742	0.06572058416868597	0.1671107619334126
0.02000000000000002	-0.009104205739805638	-0.04767821151410707	-0.0546141497350525	0.0007185399999999897	0.98293652	0.02691032000000002	-0.2529195096593672	0.07183395487376597	-0.2367390258981101	-0.2536658897656059	0.3011519908907118	0.1093416143953423	0	0.4828699557823964	-0.05724131057944941	-0.3389050955413972	-0.1980436958259574	-0.09347223470058849	0.07468429658109382	0	-0.1992339365483902	0.05539764738300262	0.1736481771354254
0.03000000000000003	-0.008322067573891588	-0.04201978778058477	-0.05661104363080788	0.0007859500000000075	0.98320937	0.04021051	-0.2578443736266263	0.06177620515995989	-0.2274974127374217	-0.2708160952144319	0.2880160198576595	0.11288257904796	0	0.4835877056821183	-0.05344825214047001	-0.3277937362857886	-0.2191232048275626	-0.09808721720448522	0.07121523059247914	0	-0.1986020404417715	0.04564174136775467	0.1718593589908604
0.04000000000000004	-0.01512172652488182	-0.02935055751580357	-0.06182336630710939	0.0001690099999999972	0.98336937	0.0534314	-0.2432229385555018	0.03860676874978084	-0.2329348711793453	-0.3086426515230888	0.2640904785411827	0.1368658389263991	0	0.4886644892161234	-0.04009299567126913	-0.3046468214297445	-0.2353091677009405	-0.1076063104891043	0.002060344077752636	0	-0.1886498047824277	0.02980022672717357	0.1711257258968137
0.05000000000000004	-0.01220927327703791	-0.01912002338208164	-0.06400343495616521	-2.303000000000721e-05	0.9848179500000001	0.06707552000000001	-0.244242811580995	0.02156908363063332	-0.2290654006549172	-0.3351946320167417	0.2292476320529143	0.1437682941047896	0	0.4858129969877527	-0.0319941329985997	-0.2933245660121027	-0.2627652591158555	-0.1063066074283755	-0.009143154599727303	0	-0.1896261854246917	0.01476537045467432	0.1710627153220265
0.05999999999999983	-0.01035274961629459	-0.01249959541188276	-0.06273630419350779	-0.0003468900000000164	0.98643007	0.08108448000000001	-0.2429425397174629	0.009660406660033649	-0.2261272343286948	-0.362653774790788	0.1873997254465903	0.1510483140913361	0	0.4827729819730301	-0.02506650615813808	-0.2750093932556104	-0.2897102987526318	-0.1114941631702802	-0.03461048103110657	0	-0.1890687750836262	0.004520749210521834	0.1673497343344579
0.06999999999999984	-0.007627510786536206	-0.007747545475713173	-0.06112218746699317	-0.0007554300000000014	0.9881951600000001	0.09509426000000001	-0.2381497118279794	-0.0004806565201493052	-0.2218539654757229	-0.3971327032003218	0.1422044523914651	0.1575914628744747	0	0.4784463604992198	-0.01859820896156395	-0.2547846690290133	-0.314854020894872	-0.1171714864000956	-0.06938147929538735	0	-0.1897633421239596	-0.003645415103433744	0.1643683482454354
0.07999999999999985	-0.002324067492640412	-0.003397725729683913	-0.06094363683080626	-0.001243960000000016	0.99031	0.10844222	-0.2281101297699561	-0.01125919108671353	-0.215346976947626	-0.4434330332166764	0.1008889457325585	0.155895586654171	0	0.4679573373092521	-0.01215767175034157	-0.2436549356451713	-0.330193370101201	-0.1017210553644576	-0.08226162049028107	0	-0.1957187943911216	-0.01113113174163865	0.1608881966235438
0.08999999999999986	-0.002453335539331085	0.005035531311386335	-0.06130675606607881	-0.001622289999999998	0.9920978300000001	0.12225762	-0.2115434519436553	-0.02491145459804941	-0.205842051198677	-0.4871317881909117	0.03402002410238505	0.1553301746766168	0	0.4602128131266518	-0.001371379020719304	-0.2363541766092551	-0.3437861857783518	-0.08590683994230568	-0.09696441687701414	0	-0.192519403064957	-0.02352564589320632	0.1595506406874647
0.09999999999999987	-0.004805255352789021	0.01325914084011502	-0.06312684584563817	-0.001943830000000007	0.99378269	0.13583386	-0.186410540370802	-0.03951323883259281	-0.1939654539033278	-0.5415603331291641	-0.02501678050601829	0.1515580390701774	0	0.4494033623213165	0.008756972577455526	-0.2354761361946289	-0.3471966333132419	-0.07425150274862075	-0.1048969390254601	0	-0.1872039050895701	-0.03495028878248822	0.1568673334472709
0.1099999999999999	-0.003146692346944167	0.01940127907149314	-0.06345561278132257	-0.002333680000000005	0.99562852	0.14910791	-0.1635588695998153	-0.05247107527900124	-0.1864389253585588	-0.5989584821367904	-0.07257679632494618	0.1430402348942421	0	0.4359862997290453	0.01625809802949459	-0.2389907744753424	-0.3533407771400943	-0.05723231026556272	-0.1074897130702932	0	-0.1875768323833706	-0.04478203860398037	0.1555304756428927
0.1199999999999999	-0.01191791978992773	0.0280012307695643	-0.06827272418198231	-0.002351710000000007	0.9963434800000001	0.1617008	-0.1224767979358361	-0.0671913329867688	-0.1708075967055381	-0.6667607671046211	-0.1053272677548976	0.1260391383339346	0	0.4312168840352139	0.02379102826742689	-0.2501737260896703	-0.3524482777198129	-0.04741377991689104	-0.106738149685242	0	-0.1756022781346873	-0.05623419154746515	0.1560953664651323
